<svg xmlns="http://www.w3.org/2000/svg" width="29" height="29" viewBox="0 0 29 29">
  <g id="Group_9502" data-name="Group 9502" transform="translate(-4975 -471)">
    <rect id="Rectangle_1815" data-name="Rectangle 1815" width="29" height="29" rx="6" transform="translate(4975 471)" fill="#017afa"/>
    <g id="Group_9501" data-name="Group 9501" transform="translate(5594.615 -12.017)">
      <path id="Path_72044" data-name="Path 72044" d="M-605.525,504.539c-1.619,0-3.237-.007-4.856,0a3.8,3.8,0,0,1-1.432-.174,2.78,2.78,0,0,1-1.8-2.628c.026-1.437.008-2.874.013-4.311.005-1.4.009-2.8,0-4.195a3.861,3.861,0,0,1,.134-1.322,2.807,2.807,0,0,1,2.663-1.895q5.05.007,10.1.011a4.783,4.783,0,0,1,1.139.063,2.8,2.8,0,0,1,2.141,2.862q-.011.2-.011.407,0,3.972,0,7.943a4.114,4.114,0,0,1-.108,1.268,2.8,2.8,0,0,1-2.7,1.979q-2.641,0-5.283,0Zm6.843-5.384v-.16q0-2.942,0-5.884a3.618,3.618,0,0,0-.043-.541,1.367,1.367,0,0,0-1.2-1.237,3.926,3.926,0,0,0-.753-.059q-4.807,0-9.613,0c-.213,0-.427.01-.64.029a1.4,1.4,0,0,0-1.37,1.226,3.612,3.612,0,0,0-.052.677q0,3.69,0,7.379a.291.291,0,0,0,.031.2c.048-.054.087-.1.132-.147q.94-.941,1.881-1.881a.841.841,0,0,1,1.3,0c.208.2.412.412.618.618.3.3.486.3.786,0l3.887-3.886a.856.856,0,0,1,1.379,0Z" transform="translate(0)" fill="#fff"/>
      <path id="Path_72045" data-name="Path 72045" d="M-539.422,563.147a1.029,1.029,0,0,1-1.039,1.028,1.04,1.04,0,0,1-1.026-1.046,1.039,1.039,0,0,1,1.042-1.029A1.035,1.035,0,0,1-539.422,563.147Z" transform="translate(-68.382 -68.341)" fill="#fff"/>
    </g>
  </g>
</svg>
