<svg xmlns="http://www.w3.org/2000/svg" width="21" height="21" viewBox="0 0 21 21">
  <g id="Group_137747" data-name="Group 137747" transform="translate(5283 -2278)">
    <g id="Group_136215" data-name="Group 136215" transform="translate(-19742 -4664)">
      <g id="Ellipse_54" data-name="Ellipse 54" transform="translate(14459 6942)" fill="#000024">
        <path d="M 10.5 20.5 C 4.985980033874512 20.5 0.5 16.0140209197998 0.5 10.5 C 0.5 4.985980033874512 4.985980033874512 0.5 10.5 0.5 C 16.0140209197998 0.5 20.5 4.985980033874512 20.5 10.5 C 20.5 16.0140209197998 16.0140209197998 20.5 10.5 20.5 Z" stroke="none"/>
        <path d="M 10.5 1 C 5.261679649353027 1 1 5.261679649353027 1 10.5 C 1 15.73831939697266 5.261679649353027 20 10.5 20 C 15.73831939697266 20 20 15.73831939697266 20 10.5 C 20 5.261679649353027 15.73831939697266 1 10.5 1 M 10.5 0 C 16.29899024963379 0 21 4.701009750366211 21 10.5 C 21 16.29899024963379 16.29899024963379 21 10.5 21 C 4.701009750366211 21 0 16.29899024963379 0 10.5 C 0 4.701009750366211 4.701009750366211 0 10.5 0 Z" stroke="none" fill="#fff"/>
      </g>
    </g>
    <g id="Group_136195" data-name="Group 136195" transform="translate(-4337.888 1013.939)">
      <g id="Group_136060" data-name="Group 136060" transform="translate(-939.895 1269.737)">
        <g id="Group_136058" data-name="Group 136058" transform="translate(0 0)">
          <path id="Path_211804" data-name="Path 211804" d="M-844.112,1445.851a4.652,4.652,0,0,1-2.531-.692,2.146,2.146,0,0,1-.917-1.067,1.671,1.671,0,0,1,.4-1.793,3.308,3.308,0,0,1,1.622-.925,5.153,5.153,0,0,1,3.332.157,3.072,3.072,0,0,1,1.155.763,1.715,1.715,0,0,1,.005,2.423,3.5,3.5,0,0,1-1.709.961,4.962,4.962,0,0,1-1.359.174Z" transform="translate(847.669 -1435.737)" fill="#fff"/>
          <path id="Path_211805" data-name="Path 211805" d="M-810.968,1272.132a2.4,2.4,0,0,1,.705-1.7,2.4,2.4,0,0,1,1.7-.7,2.4,2.4,0,0,1,1.7.705,2.4,2.4,0,0,1,.7,1.7,2.379,2.379,0,0,1-2.347,2.387,2.376,2.376,0,0,1-1.736-.675,2.377,2.377,0,0,1-.716-1.722Z" transform="translate(812.129 -1269.737)" fill="#fff"/>
        </g>
        <g id="Group_136059" data-name="Group 136059" transform="translate(6.124 1.038)">
          <path id="Path_211806" data-name="Path 211806" d="M-651.773,1302.516a1.837,1.837,0,0,1,1.9,1.717,1.81,1.81,0,0,1-1.524,1.89,1.8,1.8,0,0,1-1.376-.335c-.067-.049-.072-.074-.008-.136a2.31,2.31,0,0,0,.355-2.857c-.05-.082-.041-.113.045-.146A1.886,1.886,0,0,1-651.773,1302.516Z" transform="translate(652.875 -1302.515)" fill="#fff"/>
          <path id="Path_211807" data-name="Path 211807" d="M-652.991,1441.022a1.9,1.9,0,0,0,.46-.62,1.722,1.722,0,0,0-.352-1.929,3.525,3.525,0,0,0-1.365-.914l-.1-.041a.06.06,0,0,0-.006-.02,3.62,3.62,0,0,1,1.021-.136,3.722,3.722,0,0,1,2.278.7,1.631,1.631,0,0,1,.679.968,1.338,1.338,0,0,1-.542,1.4,2.92,2.92,0,0,1-1.471.569,3.756,3.756,0,0,1-.606.029Z" transform="translate(654.35 -1433.087)" fill="#fff"/>
        </g>
      </g>
    </g>
  </g>
</svg>
