<svg xmlns="http://www.w3.org/2000/svg" width="28.298" height="29.006" viewBox="0 0 28.298 29.006">
  <path id="Path_79883" data-name="Path 79883" d="M13.319,174.952h5.66a2.83,2.83,0,1,0-5.66,0Zm-2.122,0a4.952,4.952,0,1,1,9.9,0h8.136a1.061,1.061,0,1,1,0,2.122H27.37L25.712,194.21a5.306,5.306,0,0,1-5.281,4.8H11.867a5.306,5.306,0,0,1-5.281-4.8L4.928,177.075H3.061a1.061,1.061,0,1,1,0-2.122Zm2.83,6.721a1.061,1.061,0,0,0-2.122,0v10.612a1.061,1.061,0,0,0,2.122,0Zm5.306-1.061a1.061,1.061,0,0,1,1.061,1.061v10.612a1.061,1.061,0,0,1-2.122,0V181.673A1.061,1.061,0,0,1,19.333,180.612ZM8.7,194.007a3.184,3.184,0,0,0,3.169,2.876h8.564a3.183,3.183,0,0,0,3.169-2.876l1.639-16.932H7.06Z" transform="translate(-2 -170)" fill="#fff"/>
</svg>
